<?xml version="1.0" encoding="utf-8"?>
<svg width="32px" height="22px" viewBox="0 0 32 22" xmlns="http://www.w3.org/2000/svg">
  <title>icon-2fa</title>
  <desc>Created with Sketch.</desc>
  <g id="Symbols" stroke="none" stroke-width="1" fill="none" fill-rule="evenodd">
    <g id="icon-2fa" fill="#000000">
      <g id="Group">
        <path d="M5.37851465,1.63908617 L2.98371452,1.63908617 C1.89236773,1.63908617 0.992470214,2.53231807 0.992470214,3.63417546 L0.992470214,17.6439969 C0.992470214,18.7464634 1.88398066,19.6390862 2.98371452,19.6390862 L27.0012259,19.6390862 C28.0925727,19.6390862 28.9924702,18.7458543 28.9924702,17.6439969 L28.9924702,15.739657 L27.9924702,15.739657 L27.9924702,17.6439969 C27.9924702,18.1904571 27.543403,18.6390862 27.0012259,18.6390862 L2.98371452,18.6390862 C2.43644039,18.6390862 1.99247021,18.1943525 1.99247021,17.6439969 L1.99247021,3.63417546 C1.99247021,3.08771528 2.44153743,2.63908617 2.98371452,2.63908617 L5.37851465,2.63908617 L5.37851465,1.63908617 Z" id="Combined-Shape" transform="translate(14.992470, 10.639086) rotate(-7.000000) translate(-14.992470, -10.639086) " style="fill: rgb(0, 164, 91);"/>
        <path d="M4,2.00010618 C4,0.895478039 4.89989752,0 5.99124431,0 L30.0087557,0 C31.1084896,0 32,0.890058413 32,2.00010618 L32,14.9998938 C32,16.104522 31.1001025,17 30.0087557,17 L5.99124431,17 C4.89151044,17 4,16.1099416 4,14.9998938 L4,2.00010618 Z M17,12 L25,12 L25,13 L17,13 L17,12 Z M17,8 L27,8 L27,9 L17,9 L17,8 Z M17,4 L29,4 L29,5 L17,5 L17,4 Z M14.9421134,14 C14.618467,9 12.9764927,9 10.9995973,9 C9.02591403,9 7.38349237,9 7.05554852,14 C7.89697263,14 13.967285,14 14.9421134,14 Z M11,7.5 C12.1045695,7.5 13,6.6045695 13,5.5 C13,4.3954305 12.1045695,3.5 11,3.5 C9.8954305,3.5 9,4.3954305 9,5.5 C9,6.6045695 9.8954305,7.5 11,7.5 Z" id="Combined-Shape" style="fill: rgb(0, 164, 91);"/>
      </g>
    </g>
  </g>
</svg>